# xmcd
#
# Track frame offsets: 
#        150
#        30025
#        52465
#        73355
#        93512
#        109365
#        136840
#        153780
#        181984
#
# Disc length: 2541 seconds
#
# Revision: 2
# Processed by: cddbd v1.5.2PL0 Copyright (c) Steve Scherf et al.
# Submitted via: ExactAudioCopy v0.95b4
#
DISCID=7909eb09
DTITLE=Roy Buchanan - When a Guitar Plays the Blues
DYEAR=1985
DGENRE=Blues
TTITLE0=When A Guitar Plays The Blues
TTITLE1=Chicago Smokeshop
TTITLE2=Mrs. Pressure
TTITLE3=A Nickel And A Nail
TTITLE4=Short Fuse
TTITLE5=Why Don't You Want Me?
TTITLE6=Country Boy
TTITLE7=Sneaking Godzilla Through The Alley
TTITLE8=Hawaiian Punch
EXTD=
EXTT0=
EXTT1=
EXTT2=
EXTT3=
EXTT4=
EXTT5=
EXTT6=
EXTT7=
EXTT8=
PLAYORDER=
